<?xml version="1.0" standalone="no"?>
<!DOCTYPE svg PUBLIC "-//W3C//DTD SVG 20010904//EN"
 "http://www.w3.org/TR/2001/REC-SVG-20010904/DTD/svg10.dtd">
<svg version="1.0" xmlns="http://www.w3.org/2000/svg"
 width="200.000000pt" height="200.000000pt" viewBox="0 0 200.000000 200.000000"
 preserveAspectRatio="xMidYMid meet">

<g transform="translate(0.000000,200.000000) scale(0.100000,-0.100000)"
fill="#000000" stroke="none">
<path d="M900 1994 c-14 -2 -52 -9 -85 -15 -500 -86 -864 -575 -808 -1082 52
-457 405 -823 857 -886 413 -58 831 159 1020 529 82 161 111 283 110 470 -1
111 -6 152 -27 231 -99 376 -388 656 -760 735 -72 15 -260 27 -307 18z m261
-29 c225 -39 433 -155 571 -319 l59 -71 -2 -91 c-1 -51 2 -97 6 -104 5 -8 4
-11 -3 -7 -5 4 -24 31 -40 61 -75 131 -207 256 -354 332 -242 125 -543 127
-784 6 -146 -73 -259 -174 -352 -314 -25 -38 -46 -68 -47 -68 -1 0 -3 34 -4
76 -1 41 -2 79 -4 84 -5 20 109 155 178 210 226 179 504 253 776 205z m-71
-135 c221 -27 437 -146 552 -304 l28 -39 0 -490 0 -490 -40 -52 c-134 -174
-392 -295 -630 -295 -238 0 -496 121 -630 295 l-41 53 0 486 c0 562 -10 505
111 620 123 116 287 194 455 215 99 12 101 12 195 1z m-810 -1312 c126 -185
323 -317 542 -363 38 -8 120 -15 182 -15 293 0 558 142 724 387 23 34 42 67
42 72 0 6 5 11 10 11 11 0 14 -129 4 -180 -8 -40 -134 -174 -219 -235 -294
-209 -679 -238 -1000 -77 -100 50 -149 85 -238 171 -110 106 -115 117 -115
229 0 52 4 90 8 85 4 -4 31 -43 60 -85z"/>
<path d="M750 1480 c-129 -55 -239 -101 -244 -103 -6 -2 27 -19 71 -38 l81
-34 -15 -30 c-9 -16 -20 -33 -25 -36 -4 -3 -11 -42 -13 -87 l-5 -82 31 0 30 0
-7 48 c-4 26 -7 62 -7 80 2 62 76 140 154 162 55 16 174 13 189 -5 21 -25 3
-30 -99 -27 -95 4 -158 -9 -174 -35 -5 -8 223 -113 270 -125 12 -3 503 194
502 202 0 6 -463 201 -487 206 -10 1 -123 -42 -252 -96z"/>
<path d="M740 1151 c0 -78 0 -79 35 -110 127 -111 305 -112 446 0 l39 31 0 79
c0 43 -2 79 -4 79 -3 0 -62 -25 -133 -55 l-127 -55 -91 39 c-49 22 -107 47
-127 56 l-38 15 0 -79z"/>
<path d="M374 798 c-8 -13 -7 -143 2 -170 8 -25 50 -22 68 4 9 12 16 26 16 30
0 14 -23 8 -35 -9 -12 -16 -14 -14 -20 18 -11 58 -3 104 18 101 20 -3 22 9 5
26 -15 15 -45 15 -54 0z"/>
<path d="M490 778 c-23 -39 -27 -125 -7 -152 21 -29 53 -12 73 39 38 102 -16
194 -66 113z m51 -52 c0 -55 -13 -96 -30 -96 -16 0 -11 113 5 138 21 32 26 23
25 -42z"/>
<path d="M733 793 c-21 -14 -23 -24 -23 -94 0 -49 4 -81 12 -85 6 -4 14 -2 16
4 2 7 9 9 14 5 46 -27 121 11 133 68 8 33 -10 63 -32 55 -18 -7 -17 19 2 34
19 16 19 30 0 30 -9 0 -23 -16 -32 -36 -15 -31 -15 -36 -3 -45 8 -5 23 -7 33
-5 29 7 20 -27 -16 -62 -58 -57 -90 -34 -57 40 23 50 25 79 8 96 -16 16 -28
14 -55 -5z m37 -42 c-4 -16 -13 -38 -19 -48 -9 -15 -10 -15 -11 -2 0 24 21 79
30 79 5 0 5 -13 0 -29z"/>
<path d="M917 803 c-10 -10 -8 -166 2 -182 8 -12 15 -13 34 -4 14 6 30 8 37 3
29 -18 100 52 100 99 0 14 -31 30 -47 24 -18 -6 -16 8 3 35 22 32 7 43 -17 13
-33 -41 -16 -81 27 -64 26 10 8 -37 -27 -69 -28 -27 -57 -38 -44 -18 3 6 2 10
-4 10 -5 0 -13 -4 -16 -10 -13 -21 -25 -9 -25 24 0 23 6 36 18 41 15 6 15 8
-4 15 -25 10 -41 69 -22 82 8 4 9 8 2 8 -6 0 -14 -3 -17 -7z"/>
<path d="M1158 803 c-23 -6 -24 -11 -13 -125 4 -38 10 -68 14 -68 15 0 73 94
78 127 9 54 -24 81 -79 66z m60 -41 c2 -12 -7 -44 -20 -70 l-23 -47 -7 64 c-4
35 -5 68 -2 73 11 18 49 3 52 -20z"/>
<path d="M1283 793 c-21 -14 -23 -24 -23 -94 0 -75 12 -108 30 -79 5 9 9 9 14
1 12 -19 27 -2 16 19 -7 13 -5 30 10 62 23 50 25 79 8 96 -16 16 -28 14 -55
-5z m23 -80 c-19 -34 -21 -10 -4 38 11 29 13 31 16 12 2 -12 -4 -34 -12 -50z"/>
<path d="M1491 750 c-7 -33 -9 -65 -6 -70 3 -6 0 -10 -8 -10 -10 0 -16 18 -21
60 -6 54 -19 80 -33 67 -5 -5 13 -136 23 -169 3 -10 9 -18 14 -18 14 0 46 76
59 138 14 65 14 62 -3 62 -8 0 -18 -22 -25 -60z"/>
<path d="M1547 803 c-9 -8 -9 -120 -1 -162 7 -35 35 -42 70 -17 24 18 10 34
-16 18 -18 -11 -20 -9 -20 18 0 18 6 33 15 36 22 9 18 24 -5 24 -14 0 -20 7
-20 24 0 13 -2 31 -5 39 -5 10 2 13 27 10 27 -3 29 -1 13 6 -24 12 -49 13 -58
4z"/>
<path d="M1374 764 c4 -19 10 -42 13 -50 3 -8 0 -14 -6 -14 -6 0 -11 -19 -11
-46 0 -32 4 -44 13 -42 8 3 13 33 15 90 2 72 0 87 -14 92 -14 5 -15 1 -10 -30z"/>
<path d="M656 778 c-3 -7 -11 -33 -19 -58 l-15 -45 -1 53 c-1 40 -5 52 -16 52
-13 0 -15 -14 -13 -82 3 -75 5 -83 23 -83 15 0 22 9 26 35 l6 35 2 -32 c1 -21
6 -33 15 -33 10 0 14 15 15 58 1 31 2 68 4 81 2 26 -20 42 -27 19z"/>
<path d="M601 453 c0 -16 3 -22 6 -15 4 10 8 10 19 1 11 -9 14 -6 14 17 0 22
-3 26 -10 14 -6 -10 -10 -11 -10 -2 0 6 -4 12 -10 12 -5 0 -10 -12 -9 -27z"/>
<path d="M650 455 c0 -17 5 -25 18 -25 13 0 14 2 4 9 -8 4 -14 12 -14 16 0 4
6 12 14 16 10 7 9 9 -4 9 -13 0 -18 -8 -18 -25z"/>
<path d="M690 476 c0 -4 5 -17 11 -29 l12 -21 9 23 c5 13 6 26 3 29 -3 3 -5 0
-5 -8 0 -10 -3 -10 -15 0 -8 7 -15 9 -15 6z"/>
<path d="M740 455 c0 -17 5 -25 18 -25 14 0 15 2 2 10 -13 9 -13 10 0 10 13 0
13 1 0 10 -13 8 -12 10 3 10 11 0 17 -8 18 -22 0 -13 3 -17 6 -10 4 10 8 10
19 1 11 -9 14 -7 14 15 0 24 -4 26 -40 26 -36 0 -40 -2 -40 -25z"/>
<path d="M854 458 c3 -24 27 -31 34 -10 2 6 -2 12 -10 12 -10 0 -9 3 2 10 12
8 11 10 -7 10 -18 0 -22 -5 -19 -22z"/>
<path d="M908 455 c2 -14 6 -25 7 -25 1 0 5 11 7 25 3 16 1 25 -7 25 -8 0 -10
-9 -7 -25z"/>
<path d="M937 466 c-7 -18 11 -36 29 -29 8 3 14 14 14 24 0 22 -35 26 -43 5z
m33 -6 c0 -5 -4 -10 -10 -10 -5 0 -10 5 -10 10 0 6 5 10 10 10 6 0 10 -4 10
-10z"/>
<path d="M991 453 c0 -15 3 -22 6 -15 2 6 11 12 20 12 20 0 11 24 -10 28 -13
3 -17 -4 -16 -25z"/>
<path d="M1061 459 c-1 -25 2 -27 35 -27 21 0 32 3 25 8 -16 10 -16 21 1 31 9
6 7 9 -9 9 -16 0 -23 -6 -23 -20 0 -27 -18 -25 -23 3 -4 20 -4 19 -6 -4z"/>
<path d="M1150 471 c0 -5 -2 -16 -5 -23 -4 -9 2 -14 15 -14 21 0 24 5 14 30
-7 17 -24 22 -24 7z"/>
<path d="M1191 453 c0 -16 3 -22 6 -15 3 9 9 10 17 3 8 -7 12 -3 14 15 1 18
-3 24 -18 24 -15 0 -20 -6 -19 -27z"/>
<path d="M1241 454 c0 -16 3 -23 6 -16 2 6 10 9 16 5 7 -4 27 -8 45 -8 26 -1
32 3 32 20 0 17 -7 21 -35 23 -21 2 -35 -2 -35 -9 0 -8 -4 -8 -15 1 -13 11
-15 8 -14 -16z"/>
<path d="M1353 464 c-3 -9 0 -20 8 -25 20 -13 29 -11 29 6 0 9 -6 12 -17 9
-15 -5 -15 -3 1 10 18 14 18 16 3 16 -10 0 -20 -7 -24 -16z"/>
</g>
</svg>
